<mxfile host="app.diagrams.net" modified="2023-06-11T16:54:39.163Z" agent="Mozilla/5.0 (Macintosh; Intel Mac OS X 10_15_7) AppleWebKit/537.36 (KHTML, like Gecko) Chrome/114.0.0.0 Safari/537.36" etag="X-RJgDl6FvheBlv25zei" version="21.3.6" type="github">
  <diagram name="Page-1" id="WL_v4v0QIcBLaM0KTgS2">
    <mxGraphModel dx="957" dy="696" grid="1" gridSize="10" guides="1" tooltips="1" connect="1" arrows="1" fold="1" page="1" pageScale="1" pageWidth="827" pageHeight="1169" math="0" shadow="0">
      <root>
        <mxCell id="0" />
        <mxCell id="1" parent="0" />
        <mxCell id="6jaeI5iPwzS0YntEsKp8-1" value="" style="perimeter=none;dashed=0;shape=rect;fillColor=#ffffff;strokeColor=#eeeeee;shadow=1;" parent="1" vertex="1">
          <mxGeometry x="20" y="50" width="150" height="90" as="geometry" />
        </mxCell>
        <mxCell id="6jaeI5iPwzS0YntEsKp8-2" value="Payslip" style="text;verticalAlign=middle;fontSize=15;spacing=16;resizeWidth=1;whiteSpace=wrap;html=1;" parent="6jaeI5iPwzS0YntEsKp8-1" vertex="1">
          <mxGeometry width="150" height="42" relative="1" as="geometry">
            <mxPoint as="offset" />
          </mxGeometry>
        </mxCell>
        <mxCell id="6jaeI5iPwzS0YntEsKp8-3" value="Payslip Config" style="text;verticalAlign=middle;fontSize=15;spacing=16;resizeWidth=1;whiteSpace=wrap;html=1;" parent="6jaeI5iPwzS0YntEsKp8-1" vertex="1">
          <mxGeometry width="150" height="42" relative="1" as="geometry">
            <mxPoint y="42" as="offset" />
          </mxGeometry>
        </mxCell>
        <mxCell id="6jaeI5iPwzS0YntEsKp8-6" value="Assets" style="childLayout=tableLayout;recursiveResize=0;strokeColor=#98bf21;fillColor=#A7C942;shadow=1;" parent="1" vertex="1">
          <mxGeometry x="15" y="240" width="280" height="260" as="geometry" />
        </mxCell>
        <mxCell id="6jaeI5iPwzS0YntEsKp8-7" style="shape=tableRow;horizontal=0;startSize=0;swimlaneHead=0;swimlaneBody=0;top=0;left=0;bottom=0;right=0;dropTarget=0;collapsible=0;recursiveResize=0;expand=0;fontStyle=0;strokeColor=inherit;fillColor=#ffffff;" parent="6jaeI5iPwzS0YntEsKp8-6" vertex="1">
          <mxGeometry width="280" height="53" as="geometry" />
        </mxCell>
        <mxCell id="6jaeI5iPwzS0YntEsKp8-8" value="Email" style="connectable=0;recursiveResize=0;strokeColor=inherit;fillColor=#A7C942;align=center;fontStyle=1;fontColor=#FFFFFF;html=1;" parent="6jaeI5iPwzS0YntEsKp8-7" vertex="1">
          <mxGeometry width="90" height="53" as="geometry">
            <mxRectangle width="90" height="53" as="alternateBounds" />
          </mxGeometry>
        </mxCell>
        <mxCell id="6jaeI5iPwzS0YntEsKp8-9" value="Name" style="connectable=0;recursiveResize=0;strokeColor=inherit;fillColor=#A7C942;align=center;fontStyle=1;fontColor=#FFFFFF;html=1;" parent="6jaeI5iPwzS0YntEsKp8-7" vertex="1">
          <mxGeometry x="90" width="90" height="53" as="geometry">
            <mxRectangle width="90" height="53" as="alternateBounds" />
          </mxGeometry>
        </mxCell>
        <mxCell id="6jaeI5iPwzS0YntEsKp8-10" value="Timelog status" style="connectable=0;recursiveResize=0;strokeColor=inherit;fillColor=#A7C942;align=center;fontStyle=1;fontColor=#FFFFFF;html=1;" parent="6jaeI5iPwzS0YntEsKp8-7" vertex="1">
          <mxGeometry x="180" width="100" height="53" as="geometry">
            <mxRectangle width="100" height="53" as="alternateBounds" />
          </mxGeometry>
        </mxCell>
        <mxCell id="6jaeI5iPwzS0YntEsKp8-11" value="" style="shape=tableRow;horizontal=0;startSize=0;swimlaneHead=0;swimlaneBody=0;top=0;left=0;bottom=0;right=0;dropTarget=0;collapsible=0;recursiveResize=0;expand=0;fontStyle=0;strokeColor=inherit;fillColor=#ffffff;" parent="6jaeI5iPwzS0YntEsKp8-6" vertex="1">
          <mxGeometry y="53" width="280" height="52" as="geometry" />
        </mxCell>
        <mxCell id="6jaeI5iPwzS0YntEsKp8-12" value="Value 1" style="connectable=0;recursiveResize=0;strokeColor=inherit;fillColor=inherit;align=center;whiteSpace=wrap;html=1;" parent="6jaeI5iPwzS0YntEsKp8-11" vertex="1">
          <mxGeometry width="90" height="52" as="geometry">
            <mxRectangle width="90" height="52" as="alternateBounds" />
          </mxGeometry>
        </mxCell>
        <mxCell id="6jaeI5iPwzS0YntEsKp8-13" value="Value 2" style="connectable=0;recursiveResize=0;strokeColor=inherit;fillColor=inherit;align=center;whiteSpace=wrap;html=1;" parent="6jaeI5iPwzS0YntEsKp8-11" vertex="1">
          <mxGeometry x="90" width="90" height="52" as="geometry">
            <mxRectangle width="90" height="52" as="alternateBounds" />
          </mxGeometry>
        </mxCell>
        <mxCell id="6jaeI5iPwzS0YntEsKp8-14" value="Approved" style="connectable=0;recursiveResize=0;strokeColor=inherit;fillColor=inherit;align=center;whiteSpace=wrap;html=1;" parent="6jaeI5iPwzS0YntEsKp8-11" vertex="1">
          <mxGeometry x="180" width="100" height="52" as="geometry">
            <mxRectangle width="100" height="52" as="alternateBounds" />
          </mxGeometry>
        </mxCell>
        <mxCell id="6jaeI5iPwzS0YntEsKp8-15" value="" style="shape=tableRow;horizontal=0;startSize=0;swimlaneHead=0;swimlaneBody=0;top=0;left=0;bottom=0;right=0;dropTarget=0;collapsible=0;recursiveResize=0;expand=0;fontStyle=1;strokeColor=inherit;fillColor=#EAF2D3;" parent="6jaeI5iPwzS0YntEsKp8-6" vertex="1">
          <mxGeometry y="105" width="280" height="51" as="geometry" />
        </mxCell>
        <mxCell id="6jaeI5iPwzS0YntEsKp8-16" value="Value 4" style="connectable=0;recursiveResize=0;strokeColor=inherit;fillColor=inherit;whiteSpace=wrap;html=1;" parent="6jaeI5iPwzS0YntEsKp8-15" vertex="1">
          <mxGeometry width="90" height="51" as="geometry">
            <mxRectangle width="90" height="51" as="alternateBounds" />
          </mxGeometry>
        </mxCell>
        <mxCell id="6jaeI5iPwzS0YntEsKp8-17" value="Value 5" style="connectable=0;recursiveResize=0;strokeColor=inherit;fillColor=inherit;whiteSpace=wrap;html=1;" parent="6jaeI5iPwzS0YntEsKp8-15" vertex="1">
          <mxGeometry x="90" width="90" height="51" as="geometry">
            <mxRectangle width="90" height="51" as="alternateBounds" />
          </mxGeometry>
        </mxCell>
        <mxCell id="6jaeI5iPwzS0YntEsKp8-18" value="" style="connectable=0;recursiveResize=0;strokeColor=inherit;fillColor=inherit;whiteSpace=wrap;html=1;" parent="6jaeI5iPwzS0YntEsKp8-15" vertex="1">
          <mxGeometry x="180" width="100" height="51" as="geometry">
            <mxRectangle width="100" height="51" as="alternateBounds" />
          </mxGeometry>
        </mxCell>
        <mxCell id="6jaeI5iPwzS0YntEsKp8-19" value="" style="shape=tableRow;horizontal=0;startSize=0;swimlaneHead=0;swimlaneBody=0;top=0;left=0;bottom=0;right=0;dropTarget=0;collapsible=0;recursiveResize=0;expand=0;fontStyle=0;strokeColor=inherit;fillColor=#ffffff;" parent="6jaeI5iPwzS0YntEsKp8-6" vertex="1">
          <mxGeometry y="156" width="280" height="53" as="geometry" />
        </mxCell>
        <mxCell id="6jaeI5iPwzS0YntEsKp8-20" value="Value 7" style="connectable=0;recursiveResize=0;strokeColor=inherit;fillColor=inherit;fontStyle=0;align=center;whiteSpace=wrap;html=1;" parent="6jaeI5iPwzS0YntEsKp8-19" vertex="1">
          <mxGeometry width="90" height="53" as="geometry">
            <mxRectangle width="90" height="53" as="alternateBounds" />
          </mxGeometry>
        </mxCell>
        <mxCell id="6jaeI5iPwzS0YntEsKp8-21" value="Value 8" style="connectable=0;recursiveResize=0;strokeColor=inherit;fillColor=inherit;fontStyle=0;align=center;whiteSpace=wrap;html=1;" parent="6jaeI5iPwzS0YntEsKp8-19" vertex="1">
          <mxGeometry x="90" width="90" height="53" as="geometry">
            <mxRectangle width="90" height="53" as="alternateBounds" />
          </mxGeometry>
        </mxCell>
        <mxCell id="6jaeI5iPwzS0YntEsKp8-22" value="Pending" style="connectable=0;recursiveResize=0;strokeColor=inherit;fillColor=inherit;fontStyle=0;align=center;whiteSpace=wrap;html=1;" parent="6jaeI5iPwzS0YntEsKp8-19" vertex="1">
          <mxGeometry x="180" width="100" height="53" as="geometry">
            <mxRectangle width="100" height="53" as="alternateBounds" />
          </mxGeometry>
        </mxCell>
        <mxCell id="6jaeI5iPwzS0YntEsKp8-23" value="" style="shape=tableRow;horizontal=0;startSize=0;swimlaneHead=0;swimlaneBody=0;top=0;left=0;bottom=0;right=0;dropTarget=0;collapsible=0;recursiveResize=0;expand=0;fontStyle=1;strokeColor=inherit;fillColor=#EAF2D3;" parent="6jaeI5iPwzS0YntEsKp8-6" vertex="1">
          <mxGeometry y="209" width="280" height="51" as="geometry" />
        </mxCell>
        <mxCell id="6jaeI5iPwzS0YntEsKp8-24" value="Value 10" style="connectable=0;recursiveResize=0;strokeColor=inherit;fillColor=inherit;whiteSpace=wrap;html=1;" parent="6jaeI5iPwzS0YntEsKp8-23" vertex="1">
          <mxGeometry width="90" height="51" as="geometry">
            <mxRectangle width="90" height="51" as="alternateBounds" />
          </mxGeometry>
        </mxCell>
        <mxCell id="6jaeI5iPwzS0YntEsKp8-25" value="Value 11" style="connectable=0;recursiveResize=0;strokeColor=inherit;fillColor=inherit;whiteSpace=wrap;html=1;" parent="6jaeI5iPwzS0YntEsKp8-23" vertex="1">
          <mxGeometry x="90" width="90" height="51" as="geometry">
            <mxRectangle width="90" height="51" as="alternateBounds" />
          </mxGeometry>
        </mxCell>
        <mxCell id="6jaeI5iPwzS0YntEsKp8-26" value="Value 12" style="connectable=0;recursiveResize=0;strokeColor=inherit;fillColor=inherit;whiteSpace=wrap;html=1;" parent="6jaeI5iPwzS0YntEsKp8-23" vertex="1">
          <mxGeometry x="180" width="100" height="51" as="geometry">
            <mxRectangle width="100" height="51" as="alternateBounds" />
          </mxGeometry>
        </mxCell>
        <mxCell id="6jaeI5iPwzS0YntEsKp8-68" value="Payslip Month" style="connectable=0;recursiveResize=0;strokeColor=inherit;fillColor=#A7C942;align=center;fontStyle=1;fontColor=#FFFFFF;html=1;" parent="1" vertex="1">
          <mxGeometry x="295" y="240" width="150" height="53" as="geometry">
            <mxRectangle width="187" height="53" as="alternateBounds" />
          </mxGeometry>
        </mxCell>
        <mxCell id="6jaeI5iPwzS0YntEsKp8-69" value="Value 3" style="connectable=0;recursiveResize=0;strokeColor=inherit;fillColor=inherit;align=center;whiteSpace=wrap;html=1;" parent="1" vertex="1">
          <mxGeometry x="295" y="293" width="150" height="52" as="geometry">
            <mxRectangle width="187" height="52" as="alternateBounds" />
          </mxGeometry>
        </mxCell>
        <mxCell id="6jaeI5iPwzS0YntEsKp8-70" value="Value 6" style="connectable=0;recursiveResize=0;strokeColor=inherit;fillColor=inherit;whiteSpace=wrap;html=1;" parent="1" vertex="1">
          <mxGeometry x="295" y="345" width="150" height="51" as="geometry">
            <mxRectangle width="187" height="51" as="alternateBounds" />
          </mxGeometry>
        </mxCell>
        <mxCell id="6jaeI5iPwzS0YntEsKp8-71" value="Value 9" style="connectable=0;recursiveResize=0;strokeColor=inherit;fillColor=inherit;fontStyle=0;align=center;whiteSpace=wrap;html=1;" parent="1" vertex="1">
          <mxGeometry x="295" y="396" width="150" height="53" as="geometry">
            <mxRectangle width="187" height="53" as="alternateBounds" />
          </mxGeometry>
        </mxCell>
        <mxCell id="6jaeI5iPwzS0YntEsKp8-72" value="Value 12" style="connectable=0;recursiveResize=0;strokeColor=inherit;fillColor=inherit;whiteSpace=wrap;html=1;" parent="1" vertex="1">
          <mxGeometry x="295" y="449" width="150" height="51" as="geometry">
            <mxRectangle width="187" height="51" as="alternateBounds" />
          </mxGeometry>
        </mxCell>
        <mxCell id="6jaeI5iPwzS0YntEsKp8-73" value="Salary Month" style="text;html=1;strokeColor=none;fillColor=none;align=center;verticalAlign=middle;whiteSpace=wrap;rounded=0;fontStyle=1" parent="1" vertex="1">
          <mxGeometry x="200" y="130" width="95" height="30" as="geometry" />
        </mxCell>
        <mxCell id="6jaeI5iPwzS0YntEsKp8-74" value="User Group" style="text;html=1;strokeColor=none;fillColor=none;align=center;verticalAlign=middle;whiteSpace=wrap;rounded=0;fontStyle=1" parent="1" vertex="1">
          <mxGeometry x="370" y="130" width="95" height="30" as="geometry" />
        </mxCell>
        <mxCell id="6jaeI5iPwzS0YntEsKp8-80" value="Total Working Days" style="connectable=0;recursiveResize=0;strokeColor=inherit;fillColor=#A7C942;align=center;fontStyle=1;fontColor=#FFFFFF;html=1;" parent="1" vertex="1">
          <mxGeometry x="445" y="240.5" width="130" height="53" as="geometry">
            <mxRectangle width="187" height="53" as="alternateBounds" />
          </mxGeometry>
        </mxCell>
        <mxCell id="6jaeI5iPwzS0YntEsKp8-81" value="Value 3" style="connectable=0;recursiveResize=0;strokeColor=inherit;fillColor=inherit;align=center;whiteSpace=wrap;html=1;" parent="1" vertex="1">
          <mxGeometry x="445" y="293.5" width="130" height="52" as="geometry">
            <mxRectangle width="187" height="52" as="alternateBounds" />
          </mxGeometry>
        </mxCell>
        <mxCell id="6jaeI5iPwzS0YntEsKp8-82" value="Value 6" style="connectable=0;recursiveResize=0;strokeColor=inherit;fillColor=inherit;whiteSpace=wrap;html=1;" parent="1" vertex="1">
          <mxGeometry x="445" y="345.5" width="130" height="51" as="geometry">
            <mxRectangle width="187" height="51" as="alternateBounds" />
          </mxGeometry>
        </mxCell>
        <mxCell id="6jaeI5iPwzS0YntEsKp8-83" value="Value 9" style="connectable=0;recursiveResize=0;strokeColor=inherit;fillColor=inherit;fontStyle=0;align=center;whiteSpace=wrap;html=1;" parent="1" vertex="1">
          <mxGeometry x="445" y="396.5" width="130" height="53" as="geometry">
            <mxRectangle width="187" height="53" as="alternateBounds" />
          </mxGeometry>
        </mxCell>
        <mxCell id="6jaeI5iPwzS0YntEsKp8-84" value="Value 12" style="connectable=0;recursiveResize=0;strokeColor=inherit;fillColor=inherit;whiteSpace=wrap;html=1;" parent="1" vertex="1">
          <mxGeometry x="445" y="449.5" width="130" height="51" as="geometry">
            <mxRectangle width="187" height="51" as="alternateBounds" />
          </mxGeometry>
        </mxCell>
        <mxCell id="6jaeI5iPwzS0YntEsKp8-85" value="Total Paid Days" style="connectable=0;recursiveResize=0;strokeColor=inherit;fillColor=#A7C942;align=center;fontStyle=1;fontColor=#FFFFFF;html=1;" parent="1" vertex="1">
          <mxGeometry x="575" y="240" width="130" height="53" as="geometry">
            <mxRectangle width="187" height="53" as="alternateBounds" />
          </mxGeometry>
        </mxCell>
        <mxCell id="6jaeI5iPwzS0YntEsKp8-86" value="Value 3" style="connectable=0;recursiveResize=0;strokeColor=inherit;fillColor=inherit;align=center;whiteSpace=wrap;html=1;" parent="1" vertex="1">
          <mxGeometry x="575" y="293" width="130" height="52" as="geometry">
            <mxRectangle width="187" height="52" as="alternateBounds" />
          </mxGeometry>
        </mxCell>
        <mxCell id="6jaeI5iPwzS0YntEsKp8-87" value="Value 6" style="connectable=0;recursiveResize=0;strokeColor=inherit;fillColor=inherit;whiteSpace=wrap;html=1;" parent="1" vertex="1">
          <mxGeometry x="575" y="345" width="130" height="51" as="geometry">
            <mxRectangle width="187" height="51" as="alternateBounds" />
          </mxGeometry>
        </mxCell>
        <mxCell id="6jaeI5iPwzS0YntEsKp8-88" value="Value 9" style="connectable=0;recursiveResize=0;strokeColor=inherit;fillColor=inherit;fontStyle=0;align=center;whiteSpace=wrap;html=1;" parent="1" vertex="1">
          <mxGeometry x="575" y="396" width="130" height="53" as="geometry">
            <mxRectangle width="187" height="53" as="alternateBounds" />
          </mxGeometry>
        </mxCell>
        <mxCell id="6jaeI5iPwzS0YntEsKp8-89" value="Value 12" style="connectable=0;recursiveResize=0;strokeColor=inherit;fillColor=inherit;whiteSpace=wrap;html=1;" parent="1" vertex="1">
          <mxGeometry x="575" y="449" width="130" height="51" as="geometry">
            <mxRectangle width="187" height="51" as="alternateBounds" />
          </mxGeometry>
        </mxCell>
        <mxCell id="6jaeI5iPwzS0YntEsKp8-90" value="Total Paid Amount" style="connectable=0;recursiveResize=0;strokeColor=inherit;fillColor=#A7C942;align=center;fontStyle=1;fontColor=#FFFFFF;html=1;" parent="1" vertex="1">
          <mxGeometry x="705" y="241" width="130" height="53" as="geometry">
            <mxRectangle width="187" height="53" as="alternateBounds" />
          </mxGeometry>
        </mxCell>
        <mxCell id="6jaeI5iPwzS0YntEsKp8-91" value="Value 3" style="connectable=0;recursiveResize=0;strokeColor=inherit;fillColor=inherit;align=center;whiteSpace=wrap;html=1;" parent="1" vertex="1">
          <mxGeometry x="705" y="294" width="130" height="52" as="geometry">
            <mxRectangle width="187" height="52" as="alternateBounds" />
          </mxGeometry>
        </mxCell>
        <mxCell id="6jaeI5iPwzS0YntEsKp8-92" value="Value 6" style="connectable=0;recursiveResize=0;strokeColor=inherit;fillColor=inherit;whiteSpace=wrap;html=1;" parent="1" vertex="1">
          <mxGeometry x="705" y="346" width="130" height="51" as="geometry">
            <mxRectangle width="187" height="51" as="alternateBounds" />
          </mxGeometry>
        </mxCell>
        <mxCell id="6jaeI5iPwzS0YntEsKp8-93" value="Value 9" style="connectable=0;recursiveResize=0;strokeColor=inherit;fillColor=inherit;fontStyle=0;align=center;whiteSpace=wrap;html=1;" parent="1" vertex="1">
          <mxGeometry x="705" y="397" width="130" height="53" as="geometry">
            <mxRectangle width="187" height="53" as="alternateBounds" />
          </mxGeometry>
        </mxCell>
        <mxCell id="6jaeI5iPwzS0YntEsKp8-94" value="Value 12" style="connectable=0;recursiveResize=0;strokeColor=inherit;fillColor=inherit;whiteSpace=wrap;html=1;" parent="1" vertex="1">
          <mxGeometry x="705" y="450" width="130" height="51" as="geometry">
            <mxRectangle width="187" height="51" as="alternateBounds" />
          </mxGeometry>
        </mxCell>
        <mxCell id="6jaeI5iPwzS0YntEsKp8-95" value="Currency" style="connectable=0;recursiveResize=0;strokeColor=inherit;fillColor=#A7C942;align=center;fontStyle=1;fontColor=#FFFFFF;html=1;" parent="1" vertex="1">
          <mxGeometry x="835" y="241.5" width="130" height="53" as="geometry">
            <mxRectangle width="187" height="53" as="alternateBounds" />
          </mxGeometry>
        </mxCell>
        <mxCell id="6jaeI5iPwzS0YntEsKp8-96" value="Value 3" style="connectable=0;recursiveResize=0;strokeColor=inherit;fillColor=inherit;align=center;whiteSpace=wrap;html=1;" parent="1" vertex="1">
          <mxGeometry x="835" y="294.5" width="130" height="52" as="geometry">
            <mxRectangle width="187" height="52" as="alternateBounds" />
          </mxGeometry>
        </mxCell>
        <mxCell id="6jaeI5iPwzS0YntEsKp8-97" value="Value 6" style="connectable=0;recursiveResize=0;strokeColor=inherit;fillColor=inherit;whiteSpace=wrap;html=1;" parent="1" vertex="1">
          <mxGeometry x="835" y="346.5" width="130" height="51" as="geometry">
            <mxRectangle width="187" height="51" as="alternateBounds" />
          </mxGeometry>
        </mxCell>
        <mxCell id="6jaeI5iPwzS0YntEsKp8-98" value="Value 9" style="connectable=0;recursiveResize=0;strokeColor=inherit;fillColor=inherit;fontStyle=0;align=center;whiteSpace=wrap;html=1;" parent="1" vertex="1">
          <mxGeometry x="835" y="397.5" width="130" height="53" as="geometry">
            <mxRectangle width="187" height="53" as="alternateBounds" />
          </mxGeometry>
        </mxCell>
        <mxCell id="6jaeI5iPwzS0YntEsKp8-99" value="Value 12" style="connectable=0;recursiveResize=0;strokeColor=inherit;fillColor=inherit;whiteSpace=wrap;html=1;" parent="1" vertex="1">
          <mxGeometry x="835" y="450.5" width="130" height="51" as="geometry">
            <mxRectangle width="187" height="51" as="alternateBounds" />
          </mxGeometry>
        </mxCell>
        <mxCell id="6jaeI5iPwzS0YntEsKp8-100" value="payslip_status = NEW, Approved, Completed" style="text;html=1;strokeColor=none;fillColor=none;align=center;verticalAlign=middle;whiteSpace=wrap;rounded=0;" parent="1" vertex="1">
          <mxGeometry x="440" y="60" width="270" height="10" as="geometry" />
        </mxCell>
        <mxCell id="6jaeI5iPwzS0YntEsKp8-101" value="Create Payslip" style="rounded=1;fillColor=#0057D8;strokeColor=none;html=1;whiteSpace=wrap;fontColor=#ffffff;align=center;verticalAlign=middle;fontStyle=0;fontSize=12;sketch=0;" parent="1" vertex="1">
          <mxGeometry x="690" y="127" width="86" height="33" as="geometry" />
        </mxCell>
        <mxCell id="6jaeI5iPwzS0YntEsKp8-102" value="Currency =&amp;nbsp;java ISO 4217" style="text;html=1;align=center;verticalAlign=middle;resizable=0;points=[];autosize=1;strokeColor=none;fillColor=none;" parent="1" vertex="1">
          <mxGeometry x="750" y="50" width="160" height="30" as="geometry" />
        </mxCell>
        <mxCell id="6jaeI5iPwzS0YntEsKp8-103" value="User Email" style="text;html=1;strokeColor=none;fillColor=none;align=center;verticalAlign=middle;whiteSpace=wrap;rounded=0;fontStyle=1" parent="1" vertex="1">
          <mxGeometry x="520" y="128.5" width="95" height="30" as="geometry" />
        </mxCell>
        <mxCell id="6jaeI5iPwzS0YntEsKp8-104" value="&lt;font style=&quot;font-size: 15px;&quot;&gt;User email to load first, if user email is empty -&amp;gt; load user group&lt;/font&gt;" style="text;html=1;align=center;verticalAlign=middle;resizable=0;points=[];autosize=1;strokeColor=none;fillColor=none;" parent="1" vertex="1">
          <mxGeometry x="185" y="180" width="450" height="30" as="geometry" />
        </mxCell>
        <mxCell id="O_fYV9ROYyWhm7QD5RSh-1" value="Payment Type" style="connectable=0;recursiveResize=0;strokeColor=inherit;fillColor=#A7C942;align=center;fontStyle=1;fontColor=#FFFFFF;html=1;" vertex="1" parent="1">
          <mxGeometry x="966" y="241.75" width="130" height="53" as="geometry">
            <mxRectangle width="187" height="53" as="alternateBounds" />
          </mxGeometry>
        </mxCell>
        <mxCell id="O_fYV9ROYyWhm7QD5RSh-2" value="Value 3" style="connectable=0;recursiveResize=0;strokeColor=inherit;fillColor=inherit;align=center;whiteSpace=wrap;html=1;" vertex="1" parent="1">
          <mxGeometry x="966" y="294.75" width="130" height="52" as="geometry">
            <mxRectangle width="187" height="52" as="alternateBounds" />
          </mxGeometry>
        </mxCell>
        <mxCell id="O_fYV9ROYyWhm7QD5RSh-3" value="Value 6" style="connectable=0;recursiveResize=0;strokeColor=inherit;fillColor=inherit;whiteSpace=wrap;html=1;" vertex="1" parent="1">
          <mxGeometry x="966" y="346.75" width="130" height="51" as="geometry">
            <mxRectangle width="187" height="51" as="alternateBounds" />
          </mxGeometry>
        </mxCell>
        <mxCell id="O_fYV9ROYyWhm7QD5RSh-4" value="Value 9" style="connectable=0;recursiveResize=0;strokeColor=inherit;fillColor=inherit;fontStyle=0;align=center;whiteSpace=wrap;html=1;" vertex="1" parent="1">
          <mxGeometry x="966" y="397.75" width="130" height="53" as="geometry">
            <mxRectangle width="187" height="53" as="alternateBounds" />
          </mxGeometry>
        </mxCell>
        <mxCell id="O_fYV9ROYyWhm7QD5RSh-5" value="Value 12" style="connectable=0;recursiveResize=0;strokeColor=inherit;fillColor=inherit;whiteSpace=wrap;html=1;" vertex="1" parent="1">
          <mxGeometry x="966" y="450.75" width="130" height="51" as="geometry">
            <mxRectangle width="187" height="51" as="alternateBounds" />
          </mxGeometry>
        </mxCell>
        <mxCell id="O_fYV9ROYyWhm7QD5RSh-6" value="Payment Date" style="connectable=0;recursiveResize=0;strokeColor=inherit;fillColor=#A7C942;align=center;fontStyle=1;fontColor=#FFFFFF;html=1;" vertex="1" parent="1">
          <mxGeometry x="1096" y="242.25" width="130" height="53" as="geometry">
            <mxRectangle width="187" height="53" as="alternateBounds" />
          </mxGeometry>
        </mxCell>
        <mxCell id="O_fYV9ROYyWhm7QD5RSh-7" value="Value 3" style="connectable=0;recursiveResize=0;strokeColor=inherit;fillColor=inherit;align=center;whiteSpace=wrap;html=1;" vertex="1" parent="1">
          <mxGeometry x="1096" y="295.25" width="130" height="52" as="geometry">
            <mxRectangle width="187" height="52" as="alternateBounds" />
          </mxGeometry>
        </mxCell>
        <mxCell id="O_fYV9ROYyWhm7QD5RSh-8" value="Value 6" style="connectable=0;recursiveResize=0;strokeColor=inherit;fillColor=inherit;whiteSpace=wrap;html=1;" vertex="1" parent="1">
          <mxGeometry x="1096" y="347.25" width="130" height="51" as="geometry">
            <mxRectangle width="187" height="51" as="alternateBounds" />
          </mxGeometry>
        </mxCell>
        <mxCell id="O_fYV9ROYyWhm7QD5RSh-9" value="Value 9" style="connectable=0;recursiveResize=0;strokeColor=inherit;fillColor=inherit;fontStyle=0;align=center;whiteSpace=wrap;html=1;" vertex="1" parent="1">
          <mxGeometry x="1096" y="398.25" width="130" height="53" as="geometry">
            <mxRectangle width="187" height="53" as="alternateBounds" />
          </mxGeometry>
        </mxCell>
        <mxCell id="O_fYV9ROYyWhm7QD5RSh-10" value="Value 12" style="connectable=0;recursiveResize=0;strokeColor=inherit;fillColor=inherit;whiteSpace=wrap;html=1;" vertex="1" parent="1">
          <mxGeometry x="1096" y="451.25" width="130" height="51" as="geometry">
            <mxRectangle width="187" height="51" as="alternateBounds" />
          </mxGeometry>
        </mxCell>
        <mxCell id="O_fYV9ROYyWhm7QD5RSh-11" value="Payslip Status" style="connectable=0;recursiveResize=0;strokeColor=inherit;fillColor=#A7C942;align=center;fontStyle=1;fontColor=#FFFFFF;html=1;" vertex="1" parent="1">
          <mxGeometry x="1227" y="242.38" width="130" height="53" as="geometry">
            <mxRectangle width="187" height="53" as="alternateBounds" />
          </mxGeometry>
        </mxCell>
        <mxCell id="O_fYV9ROYyWhm7QD5RSh-12" value="Value 3" style="connectable=0;recursiveResize=0;strokeColor=inherit;fillColor=inherit;align=center;whiteSpace=wrap;html=1;" vertex="1" parent="1">
          <mxGeometry x="1227" y="295.38" width="130" height="52" as="geometry">
            <mxRectangle width="187" height="52" as="alternateBounds" />
          </mxGeometry>
        </mxCell>
        <mxCell id="O_fYV9ROYyWhm7QD5RSh-13" value="Value 6" style="connectable=0;recursiveResize=0;strokeColor=inherit;fillColor=inherit;whiteSpace=wrap;html=1;" vertex="1" parent="1">
          <mxGeometry x="1227" y="347.38" width="130" height="51" as="geometry">
            <mxRectangle width="187" height="51" as="alternateBounds" />
          </mxGeometry>
        </mxCell>
        <mxCell id="O_fYV9ROYyWhm7QD5RSh-14" value="Value 9" style="connectable=0;recursiveResize=0;strokeColor=inherit;fillColor=inherit;fontStyle=0;align=center;whiteSpace=wrap;html=1;" vertex="1" parent="1">
          <mxGeometry x="1227" y="398.38" width="130" height="53" as="geometry">
            <mxRectangle width="187" height="53" as="alternateBounds" />
          </mxGeometry>
        </mxCell>
        <mxCell id="O_fYV9ROYyWhm7QD5RSh-15" value="Value 12" style="connectable=0;recursiveResize=0;strokeColor=inherit;fillColor=inherit;whiteSpace=wrap;html=1;" vertex="1" parent="1">
          <mxGeometry x="1227" y="451.38" width="130" height="51" as="geometry">
            <mxRectangle width="187" height="51" as="alternateBounds" />
          </mxGeometry>
        </mxCell>
        <mxCell id="O_fYV9ROYyWhm7QD5RSh-16" value="Preparer" style="connectable=0;recursiveResize=0;strokeColor=inherit;fillColor=#A7C942;align=center;fontStyle=1;fontColor=#FFFFFF;html=1;" vertex="1" parent="1">
          <mxGeometry x="1358" y="242.63" width="130" height="53" as="geometry">
            <mxRectangle width="187" height="53" as="alternateBounds" />
          </mxGeometry>
        </mxCell>
        <mxCell id="O_fYV9ROYyWhm7QD5RSh-17" value="Value 3" style="connectable=0;recursiveResize=0;strokeColor=inherit;fillColor=inherit;align=center;whiteSpace=wrap;html=1;" vertex="1" parent="1">
          <mxGeometry x="1358" y="295.63" width="130" height="52" as="geometry">
            <mxRectangle width="187" height="52" as="alternateBounds" />
          </mxGeometry>
        </mxCell>
        <mxCell id="O_fYV9ROYyWhm7QD5RSh-18" value="Value 6" style="connectable=0;recursiveResize=0;strokeColor=inherit;fillColor=inherit;whiteSpace=wrap;html=1;" vertex="1" parent="1">
          <mxGeometry x="1358" y="347.63" width="130" height="51" as="geometry">
            <mxRectangle width="187" height="51" as="alternateBounds" />
          </mxGeometry>
        </mxCell>
        <mxCell id="O_fYV9ROYyWhm7QD5RSh-19" value="Value 9" style="connectable=0;recursiveResize=0;strokeColor=inherit;fillColor=inherit;fontStyle=0;align=center;whiteSpace=wrap;html=1;" vertex="1" parent="1">
          <mxGeometry x="1358" y="398.63" width="130" height="53" as="geometry">
            <mxRectangle width="187" height="53" as="alternateBounds" />
          </mxGeometry>
        </mxCell>
        <mxCell id="O_fYV9ROYyWhm7QD5RSh-20" value="Value 12" style="connectable=0;recursiveResize=0;strokeColor=inherit;fillColor=inherit;whiteSpace=wrap;html=1;" vertex="1" parent="1">
          <mxGeometry x="1358" y="451.63" width="130" height="51" as="geometry">
            <mxRectangle width="187" height="51" as="alternateBounds" />
          </mxGeometry>
        </mxCell>
        <mxCell id="O_fYV9ROYyWhm7QD5RSh-21" value="Approver" style="connectable=0;recursiveResize=0;strokeColor=inherit;fillColor=#A7C942;align=center;fontStyle=1;fontColor=#FFFFFF;html=1;" vertex="1" parent="1">
          <mxGeometry x="1488" y="243.13" width="130" height="53" as="geometry">
            <mxRectangle width="187" height="53" as="alternateBounds" />
          </mxGeometry>
        </mxCell>
        <mxCell id="O_fYV9ROYyWhm7QD5RSh-22" value="Value 3" style="connectable=0;recursiveResize=0;strokeColor=inherit;fillColor=inherit;align=center;whiteSpace=wrap;html=1;" vertex="1" parent="1">
          <mxGeometry x="1488" y="296.13" width="130" height="52" as="geometry">
            <mxRectangle width="187" height="52" as="alternateBounds" />
          </mxGeometry>
        </mxCell>
        <mxCell id="O_fYV9ROYyWhm7QD5RSh-23" value="Value 6" style="connectable=0;recursiveResize=0;strokeColor=inherit;fillColor=inherit;whiteSpace=wrap;html=1;" vertex="1" parent="1">
          <mxGeometry x="1488" y="348.13" width="130" height="51" as="geometry">
            <mxRectangle width="187" height="51" as="alternateBounds" />
          </mxGeometry>
        </mxCell>
        <mxCell id="O_fYV9ROYyWhm7QD5RSh-24" value="Value 9" style="connectable=0;recursiveResize=0;strokeColor=inherit;fillColor=inherit;fontStyle=0;align=center;whiteSpace=wrap;html=1;" vertex="1" parent="1">
          <mxGeometry x="1488" y="399.13" width="130" height="53" as="geometry">
            <mxRectangle width="187" height="53" as="alternateBounds" />
          </mxGeometry>
        </mxCell>
        <mxCell id="O_fYV9ROYyWhm7QD5RSh-25" value="Value 12" style="connectable=0;recursiveResize=0;strokeColor=inherit;fillColor=inherit;whiteSpace=wrap;html=1;" vertex="1" parent="1">
          <mxGeometry x="1488" y="452.13" width="130" height="51" as="geometry">
            <mxRectangle width="187" height="51" as="alternateBounds" />
          </mxGeometry>
        </mxCell>
      </root>
    </mxGraphModel>
  </diagram>
</mxfile>
